<svg width="492" height="64" viewBox="0 0 492 64" fill="none" xmlns="http://www.w3.org/2000/svg">
<g opacity="0.5">
<rect y="52" width="8" height="8" transform="rotate(-45 0 52)" fill="#FCFCFC"/>
<path d="M18.5405 58V50.048L23.5805 58H24.9525V48.2H23.7625V56.18L18.7085 48.2H17.3505V58H18.5405ZM33.3161 58V56.922H28.2201V53.478H32.2381V52.4H28.2201V49.278H33.1621V48.2H27.0301V58H33.3161ZM38.4058 58.112C40.6318 58.112 42.1018 56.782 42.1018 54.64V48.2H40.9398V54.696C40.9398 56.138 39.9318 57.034 38.4058 57.034C36.8938 57.034 35.8858 56.138 35.8858 54.696V48.2H34.7098V54.64C34.7098 56.782 36.1798 58.112 38.4058 58.112ZM47.4826 58V49.278H50.6046V48.2H43.1426V49.278H46.2786V58H47.4826ZM57.0546 53.352C57.9786 52.918 58.5946 52.148 58.5946 51.07C58.5946 49.362 57.4046 48.2 55.4726 48.2H51.7626V58H52.9526V54.01H55.6126C56.5366 54.01 57.1526 54.682 57.2086 55.634L57.3766 58H58.5246L58.3566 55.564C58.2866 54.57 57.8246 53.772 57.0546 53.352ZM55.4726 49.264C56.8446 49.264 57.3626 50.104 57.3626 51.07C57.3626 52.036 56.8446 52.932 55.4726 52.932H52.9526V49.264H55.4726ZM68.7653 58L64.8593 48.2H63.7813L59.8753 58H61.1213L62.1433 55.354H66.5113L67.5193 58H68.7653ZM64.3273 49.67L66.0913 54.29H62.5493L64.3273 49.67ZM75.9678 58V56.922H71.0678V48.2H69.8778V58H75.9678ZM86.8279 58V56.922H81.7319V53.478H85.7499V52.4H81.7319V49.278H86.6739V48.2H80.5419V58H86.8279ZM92.2935 53.044L95.3735 48.2H94.1135L91.6775 52.05L89.2275 48.2H87.9815L91.0475 53.03L87.8975 58H89.1435L91.6775 54.024L94.1975 58H95.4435L92.2935 53.044ZM98.1381 58V53.996H100.63C102.576 53.996 103.752 52.82 103.752 51.098C103.752 49.376 102.576 48.2 100.63 48.2H96.9481V58H98.1381ZM98.1381 49.264H100.63C102.016 49.264 102.534 50.132 102.534 51.098C102.534 52.064 102.016 52.932 100.63 52.932H98.1381V49.264ZM110.443 53.352C111.367 52.918 111.983 52.148 111.983 51.07C111.983 49.362 110.793 48.2 108.861 48.2H105.151V58H106.341V54.01H109.001C109.925 54.01 110.541 54.682 110.597 55.634L110.765 58H111.913L111.745 55.564C111.675 54.57 111.213 53.772 110.443 53.352ZM108.861 49.264C110.233 49.264 110.751 50.104 110.751 51.07C110.751 52.036 110.233 52.932 108.861 52.932H106.341V49.264H108.861ZM120.488 58V56.922H115.392V53.478H119.41V52.4H115.392V49.278H120.334V48.2H114.202V58H120.488ZM125.31 58.112C127.354 58.112 128.894 57.104 128.894 55.326C128.894 51.644 123.126 53.198 123.126 50.692C123.126 49.754 123.91 49.166 125.24 49.166C126.556 49.166 127.41 49.88 127.522 50.986H128.698C128.558 49.222 127.2 48.088 125.24 48.088C123.28 48.088 121.922 49.138 121.922 50.692C121.922 54.192 127.648 52.806 127.648 55.326C127.648 56.516 126.668 57.034 125.31 57.034C123.784 57.034 122.888 56.152 122.762 54.794H121.586C121.712 56.796 123.112 58.112 125.31 58.112ZM133.622 58.112C135.666 58.112 137.206 57.104 137.206 55.326C137.206 51.644 131.438 53.198 131.438 50.692C131.438 49.754 132.222 49.166 133.552 49.166C134.868 49.166 135.722 49.88 135.834 50.986H137.01C136.87 49.222 135.512 48.088 133.552 48.088C131.592 48.088 130.234 49.138 130.234 50.692C130.234 54.192 135.96 52.806 135.96 55.326C135.96 56.516 134.98 57.034 133.622 57.034C132.096 57.034 131.2 56.152 131.074 54.794H129.898C130.024 56.796 131.424 58.112 133.622 58.112ZM139.947 58V48.2H138.757V58H139.947ZM146.378 58.112C149.136 58.112 151.194 55.984 151.194 53.1C151.194 50.216 149.136 48.088 146.378 48.088C143.62 48.088 141.576 50.216 141.576 53.1C141.576 55.984 143.62 58.112 146.378 58.112ZM146.378 57.034C144.32 57.034 142.808 55.354 142.808 53.1C142.808 50.846 144.32 49.166 146.378 49.166C148.436 49.166 149.962 50.846 149.962 53.1C149.962 55.354 148.436 57.034 146.378 57.034ZM153.988 58V50.048L159.028 58H160.4V48.2H159.21V56.18L154.156 48.2H152.798V58H153.988Z" fill="#FCFCFC"/>
</g>
<g opacity="0.5">
<rect x="194.314" y="52" width="8" height="8" transform="rotate(-45 194.314 52)" fill="#FCFCFC"/>
<path d="M212.855 58V53.59H216.873V52.512H212.855V49.278H217.797V48.2H211.665V58H212.855ZM224.723 53.352C225.647 52.918 226.263 52.148 226.263 51.07C226.263 49.362 225.073 48.2 223.141 48.2H219.431V58H220.621V54.01H223.281C224.205 54.01 224.821 54.682 224.877 55.634L225.045 58H226.193L226.025 55.564C225.955 54.57 225.493 53.772 224.723 53.352ZM223.141 49.264C224.513 49.264 225.031 50.104 225.031 51.07C225.031 52.036 224.513 52.932 223.141 52.932H220.621V49.264H223.141ZM232.439 58.112C235.197 58.112 237.255 55.984 237.255 53.1C237.255 50.216 235.197 48.088 232.439 48.088C229.681 48.088 227.637 50.216 227.637 53.1C227.637 55.984 229.681 58.112 232.439 58.112ZM232.439 57.034C230.381 57.034 228.869 55.354 228.869 53.1C228.869 50.846 230.381 49.166 232.439 49.166C234.497 49.166 236.023 50.846 236.023 53.1C236.023 55.354 234.497 57.034 232.439 57.034ZM240.048 58V50.048L245.088 58H246.46V48.2H245.27V56.18L240.216 48.2H238.858V58H240.048ZM252.01 58V49.278H255.132V48.2H247.67V49.278H250.806V58H252.01ZM262.943 58L259.037 48.2H257.959L254.053 58H255.299L256.321 55.354H260.689L261.697 58H262.943ZM258.505 49.67L260.269 54.29H256.727L258.505 49.67ZM270.146 58V56.922H265.246V48.2H264.056V58H270.146ZM275.91 58V53.996H278.402C280.348 53.996 281.524 52.82 281.524 51.098C281.524 49.376 280.348 48.2 278.402 48.2H274.72V58H275.91ZM275.91 49.264H278.402C279.788 49.264 280.306 50.132 280.306 51.098C280.306 52.064 279.788 52.932 278.402 52.932H275.91V49.264ZM287.277 58.112C290.035 58.112 292.093 55.984 292.093 53.1C292.093 50.216 290.035 48.088 287.277 48.088C284.519 48.088 282.475 50.216 282.475 53.1C282.475 55.984 284.519 58.112 287.277 58.112ZM287.277 57.034C285.219 57.034 283.707 55.354 283.707 53.1C283.707 50.846 285.219 49.166 287.277 49.166C289.335 49.166 290.861 50.846 290.861 53.1C290.861 55.354 289.335 57.034 287.277 57.034ZM296.874 58.112C298.918 58.112 300.458 57.104 300.458 55.326C300.458 51.644 294.69 53.198 294.69 50.692C294.69 49.754 295.474 49.166 296.804 49.166C298.12 49.166 298.974 49.88 299.086 50.986H300.262C300.122 49.222 298.764 48.088 296.804 48.088C294.844 48.088 293.486 49.138 293.486 50.692C293.486 54.192 299.212 52.806 299.212 55.326C299.212 56.516 298.232 57.034 296.874 57.034C295.348 57.034 294.452 56.152 294.326 54.794H293.15C293.276 56.796 294.676 58.112 296.874 58.112ZM308.295 58V56.922H303.199V53.478H307.217V52.4H303.199V49.278H308.141V48.2H302.009V58H308.295Z" fill="#FCFCFC"/>
</g>
<rect x="342.334" y="52" width="7" height="7" transform="rotate(-45 342.334 52)" stroke="#FCFCFC"/>
<path d="M366.929 58L363.023 48.2H361.945L358.039 58H359.285L360.307 55.354H364.675L365.683 58H366.929ZM362.491 49.67L364.255 54.29H360.713L362.491 49.67ZM370.926 58C373.67 58 375.812 56.222 375.812 53.1C375.812 49.978 373.67 48.2 370.926 48.2H368.042V58H370.926ZM369.232 49.278H370.898C372.802 49.278 374.566 50.398 374.566 53.1C374.566 55.802 372.802 56.922 370.898 56.922H369.232V49.278ZM383.72 58V56.922H378.624V53.478H382.642V52.4H378.624V49.278H383.566V48.2H377.434V58H383.72ZM394.138 53.1C394.138 50.216 392.08 48.088 389.322 48.088C386.564 48.088 384.52 50.216 384.52 53.1C384.52 55.802 386.312 57.832 388.79 58.084V58.672C388.79 60.198 389.588 60.856 391.184 60.856H392.43V59.89H391.198C390.274 59.89 389.882 59.582 389.882 58.644V58.084C392.36 57.818 394.138 55.788 394.138 53.1ZM385.752 53.1C385.752 50.846 387.264 49.166 389.322 49.166C391.38 49.166 392.906 50.846 392.906 53.1C392.906 55.354 391.38 57.034 389.322 57.034C387.264 57.034 385.752 55.354 385.752 53.1ZM399.269 58.112C401.495 58.112 402.965 56.782 402.965 54.64V48.2H401.803V54.696C401.803 56.138 400.795 57.034 399.269 57.034C397.757 57.034 396.749 56.138 396.749 54.696V48.2H395.573V54.64C395.573 56.782 397.043 58.112 399.269 58.112ZM412.32 58L408.414 48.2H407.336L403.43 58H404.676L405.698 55.354H410.066L411.074 58H412.32ZM407.882 49.67L409.646 54.29H406.104L407.882 49.67ZM415.592 58V49.278H418.714V48.2H411.252V49.278H414.388V58H415.592ZM426.158 58V56.922H421.062V53.478H425.08V52.4H421.062V49.278H426.004V48.2H419.872V58H426.158ZM437.228 58V56.922H432.328V48.2H431.138V58H437.228ZM439.656 58V48.2H438.466V58H439.656ZM445.989 58.112C447.431 58.112 448.649 57.37 449.111 56.292V58H450.217V54.64C450.217 53.52 449.195 52.96 448.481 52.96H446.059V53.996H448.271C448.747 53.996 449.041 54.29 449.041 54.738C449.041 56.152 447.613 57.062 446.003 57.062C443.987 57.062 442.503 55.634 442.503 53.1C442.503 50.552 443.987 49.166 446.003 49.166C447.515 49.166 448.747 50.048 448.971 51.294H450.231C450.007 49.418 448.257 48.088 446.017 48.088C443.581 48.088 441.285 49.754 441.285 53.1C441.285 56.446 443.567 58.112 445.989 58.112ZM458.344 52.4H453.15V48.2H451.96V58H453.15V53.478H458.344V58H459.534V48.2H458.344V52.4ZM465.084 58V49.278H468.206V48.2H460.744V49.278H463.88V58H465.084ZM470.554 58V48.2H469.364V58H470.554ZM473.822 58V50.048L478.862 58H480.234V48.2H479.044V56.18L473.99 48.2H472.632V58H473.822ZM486.567 58.112C488.009 58.112 489.227 57.37 489.689 56.292V58H490.795V54.64C490.795 53.52 489.773 52.96 489.059 52.96H486.637V53.996H488.849C489.325 53.996 489.619 54.29 489.619 54.738C489.619 56.152 488.191 57.062 486.581 57.062C484.565 57.062 483.081 55.634 483.081 53.1C483.081 50.552 484.565 49.166 486.581 49.166C488.093 49.166 489.325 50.048 489.549 51.294H490.809C490.585 49.418 488.835 48.088 486.595 48.088C484.159 48.088 481.863 49.754 481.863 53.1C481.863 56.446 484.145 58.112 486.567 58.112Z" fill="#FCFCFC"/>
<path d="M128.627 18V9.278H131.749V8.2H124.287V9.278H127.423V18H128.627ZM136.619 18.112C139.377 18.112 141.435 15.984 141.435 13.1C141.435 10.216 139.377 8.088 136.619 8.088C133.861 8.088 131.817 10.216 131.817 13.1C131.817 15.984 133.861 18.112 136.619 18.112ZM136.619 17.034C134.561 17.034 133.049 15.354 133.049 13.1C133.049 10.846 134.561 9.166 136.619 9.166C138.677 9.166 140.203 10.846 140.203 13.1C140.203 15.354 138.677 17.034 136.619 17.034ZM150.63 18.112C152.072 18.112 153.29 17.37 153.752 16.292V18H154.858V14.64C154.858 13.52 153.836 12.96 153.122 12.96H150.7V13.996H152.912C153.388 13.996 153.682 14.29 153.682 14.738C153.682 16.152 152.254 17.062 150.644 17.062C148.628 17.062 147.144 15.634 147.144 13.1C147.144 10.552 148.628 9.166 150.644 9.166C152.156 9.166 153.388 10.048 153.612 11.294H154.872C154.648 9.418 152.898 8.088 150.658 8.088C148.222 8.088 145.926 9.754 145.926 13.1C145.926 16.446 148.208 18.112 150.63 18.112ZM162.886 18V16.922H157.79V13.478H161.808V12.4H157.79V9.278H162.732V8.2H156.6V18H162.886ZM168.002 18V9.278H171.124V8.2H163.662V9.278H166.798V18H168.002ZM179.383 18C181.399 18 182.589 16.908 182.589 15.144C182.589 13.772 181.861 12.974 180.853 12.638C181.511 12.358 182.155 11.63 182.155 10.72C182.155 9.124 181.021 8.2 179.159 8.2H175.659V18H179.383ZM176.849 9.25H179.131C180.307 9.25 180.965 9.74 180.965 10.748C180.965 11.756 180.307 12.26 179.131 12.26H176.849V9.25ZM176.849 13.324H179.187C180.629 13.324 181.371 13.954 181.371 15.13C181.371 16.292 180.629 16.922 179.187 16.922H176.849V13.324ZM190.504 18V16.922H185.408V13.478H189.426V12.4H185.408V9.278H190.35V8.2H184.218V18H190.504ZM195.619 18V9.278H198.741V8.2H191.279V9.278H194.415V18H195.619ZM203.412 18V9.278H206.534V8.2H199.072V9.278H202.208V18H203.412ZM213.978 18V16.922H208.882V13.478H212.9V12.4H208.882V9.278H213.824V8.2H207.692V18H213.978ZM220.914 13.352C221.838 12.918 222.454 12.148 222.454 11.07C222.454 9.362 221.264 8.2 219.332 8.2H215.622V18H216.812V14.01H219.472C220.396 14.01 221.012 14.682 221.068 15.634L221.236 18H222.384L222.216 15.564C222.146 14.57 221.684 13.772 220.914 13.352ZM219.332 9.264C220.704 9.264 221.222 10.104 221.222 11.07C221.222 12.036 220.704 12.932 219.332 12.932H216.812V9.264H219.332ZM233.301 13.352C234.225 12.918 234.841 12.148 234.841 11.07C234.841 9.362 233.651 8.2 231.719 8.2H228.009V18H229.199V14.01H231.859C232.783 14.01 233.399 14.682 233.455 15.634L233.623 18H234.771L234.603 15.564C234.533 14.57 234.071 13.772 233.301 13.352ZM231.719 9.264C233.091 9.264 233.609 10.104 233.609 11.07C233.609 12.036 233.091 12.932 231.719 12.932H229.199V9.264H231.719ZM243.345 18V16.922H238.249V13.478H242.267V12.4H238.249V9.278H243.191V8.2H237.059V18H243.345ZM248.167 18.112C250.211 18.112 251.751 17.104 251.751 15.326C251.751 11.644 245.983 13.198 245.983 10.692C245.983 9.754 246.767 9.166 248.097 9.166C249.413 9.166 250.267 9.88 250.379 10.986H251.555C251.415 9.222 250.057 8.088 248.097 8.088C246.137 8.088 244.779 9.138 244.779 10.692C244.779 14.192 250.505 12.806 250.505 15.326C250.505 16.516 249.525 17.034 248.167 17.034C246.641 17.034 245.745 16.152 245.619 14.794H244.443C244.569 16.796 245.969 18.112 248.167 18.112ZM256.83 18.112C259.056 18.112 260.526 16.782 260.526 14.64V8.2H259.364V14.696C259.364 16.138 258.356 17.034 256.83 17.034C255.318 17.034 254.31 16.138 254.31 14.696V8.2H253.134V14.64C253.134 16.782 254.604 18.112 256.83 18.112ZM268.524 18V16.922H263.624V8.2H262.434V18H268.524ZM271.731 18V9.278H274.853V8.2H267.391V9.278H270.527V18H271.731ZM279.12 18.112C281.164 18.112 282.704 17.104 282.704 15.326C282.704 11.644 276.936 13.198 276.936 10.692C276.936 9.754 277.72 9.166 279.05 9.166C280.366 9.166 281.22 9.88 281.332 10.986H282.508C282.368 9.222 281.01 8.088 279.05 8.088C277.09 8.088 275.732 9.138 275.732 10.692C275.732 14.192 281.458 12.806 281.458 15.326C281.458 16.516 280.478 17.034 279.12 17.034C277.594 17.034 276.698 16.152 276.572 14.794H275.396C275.522 16.796 276.922 18.112 279.12 18.112ZM288.753 18V10.188L291.847 18H292.897L295.991 10.188V18H297.153V8.2H295.599L292.379 16.39L289.145 8.2H287.591V18H288.753ZM307.177 18L303.271 8.2H302.193L298.287 18H299.533L300.555 15.354H304.923L305.931 18H307.177ZM302.739 9.67L304.503 14.29H300.961L302.739 9.67ZM315.99 18L311.748 12.148L315.556 8.2H314.044L309.494 12.862V8.2H308.29V18H309.494V14.472L310.936 12.988L314.548 18H315.99ZM323.463 18V16.922H318.367V13.478H322.385V12.4H318.367V9.278H323.309V8.2H317.177V18H323.463ZM331.62 18.112C333.664 18.112 335.204 17.104 335.204 15.326C335.204 11.644 329.436 13.198 329.436 10.692C329.436 9.754 330.22 9.166 331.55 9.166C332.866 9.166 333.72 9.88 333.832 10.986H335.008C334.868 9.222 333.51 8.088 331.55 8.088C329.59 8.088 328.232 9.138 328.232 10.692C328.232 14.192 333.958 12.806 333.958 15.326C333.958 16.516 332.978 17.034 331.62 17.034C330.094 17.034 329.198 16.152 329.072 14.794H327.896C328.022 16.796 329.422 18.112 331.62 18.112ZM340.283 18.112C342.509 18.112 343.979 16.782 343.979 14.64V8.2H342.817V14.696C342.817 16.138 341.809 17.034 340.283 17.034C338.771 17.034 337.763 16.138 337.763 14.696V8.2H336.587V14.64C336.587 16.782 338.057 18.112 340.283 18.112ZM351.18 13.352C352.104 12.918 352.72 12.148 352.72 11.07C352.72 9.362 351.53 8.2 349.598 8.2H345.888V18H347.078V14.01H349.738C350.662 14.01 351.278 14.682 351.334 15.634L351.502 18H352.65L352.482 15.564C352.412 14.57 351.95 13.772 351.18 13.352ZM349.598 9.264C350.97 9.264 351.488 10.104 351.488 11.07C351.488 12.036 350.97 12.932 349.598 12.932H347.078V9.264H349.598ZM361.224 18V16.922H356.128V13.478H360.146V12.4H356.128V9.278H361.07V8.2H354.938V18H361.224ZM369.676 18V9.278H372.798V8.2H365.336V9.278H368.472V18H369.676ZM377.667 18.112C380.425 18.112 382.483 15.984 382.483 13.1C382.483 10.216 380.425 8.088 377.667 8.088C374.909 8.088 372.865 10.216 372.865 13.1C372.865 15.984 374.909 18.112 377.667 18.112ZM377.667 17.034C375.609 17.034 374.097 15.354 374.097 13.1C374.097 10.846 375.609 9.166 377.667 9.166C379.725 9.166 381.251 10.846 381.251 13.1C381.251 15.354 379.725 17.034 377.667 17.034ZM393.807 12.4H388.613V8.2H387.423V18H388.613V13.478H393.807V18H394.997V8.2H393.807V12.4ZM405.027 18L401.121 8.2H400.043L396.137 18H397.383L398.405 15.354H402.773L403.781 18H405.027ZM400.589 9.67L402.353 14.29H398.811L400.589 9.67ZM409.145 18L412.855 8.2H411.637L408.529 16.614L405.449 8.2H404.217L407.927 18H409.145ZM420.273 18V16.922H415.177V13.478H419.195V12.4H415.177V9.278H420.119V8.2H413.987V18H420.273Z" fill="#FCFCFC"/>
</svg>
