<svg width="444" height="444" viewBox="0 0 444 444" fill="none" xmlns="http://www.w3.org/2000/svg">
<rect x="222.002" y="0.00268555" width="153.876" height="153.875" transform="rotate(45 222.002 0.00268555)" fill="#E1E1E2"/>
<path d="M165.499 114.972C168.603 114.972 171.243 113.116 171.243 109.372C171.243 105.628 168.603 103.772 165.499 103.772L161.867 103.772L161.867 114.972L165.499 114.972ZM163.979 105.596L165.323 105.596C167.259 105.596 169.099 106.604 169.099 109.372C169.099 112.14 167.259 113.132 165.323 113.132L163.979 113.132L163.979 105.596ZM180.21 114.972L180.21 113.132L174.69 113.132L174.69 110.14L178.978 110.14L178.978 108.316L174.69 108.316L174.69 105.596L180.034 105.596L180.034 103.772L172.578 103.772L172.578 114.972L180.21 114.972ZM183.524 114.972L183.524 107.548L186.58 114.972L188.18 114.972L191.22 107.548L191.22 114.972L193.204 114.972L193.204 103.772L190.772 103.772L187.38 112.044L183.988 103.772L181.54 103.772L181.54 114.972L183.524 114.972ZM200.2 115.1C203.448 115.1 205.848 112.668 205.848 109.372C205.848 106.076 203.448 103.644 200.2 103.644C196.936 103.644 194.536 106.076 194.536 109.372C194.536 112.668 196.936 115.1 200.2 115.1ZM200.184 113.26C198.152 113.26 196.664 111.612 196.664 109.372C196.664 107.132 198.152 105.468 200.184 105.468C202.232 105.468 203.72 107.132 203.72 109.372C203.72 111.612 202.232 113.26 200.184 113.26ZM212.157 115.1C213.661 115.1 214.893 114.332 215.309 113.196L215.309 114.972L217.197 114.972L217.197 110.796C217.197 109.724 216.317 108.956 215.341 108.956L212.365 108.956L212.365 110.572L214.637 110.572C214.989 110.572 215.213 110.796 215.213 111.148C215.213 112.348 213.757 113.356 212.237 113.356C210.253 113.356 208.717 111.852 208.717 109.372C208.717 106.892 210.253 105.468 212.269 105.468C213.805 105.468 214.909 106.316 215.101 107.58L217.229 107.58C217.053 105.26 215.037 103.644 212.285 103.644C209.373 103.644 206.685 105.548 206.685 109.372C206.685 113.196 209.325 115.1 212.157 115.1ZM226.864 111.98C226.784 110.956 226.288 110.124 225.52 109.644C226.448 109.164 227.024 108.38 227.024 107.228C227.024 105.196 225.648 103.772 223.312 103.772L218.72 103.772L218.72 114.972L220.848 114.972L220.848 110.764L223.264 110.764C224.096 110.764 224.688 111.372 224.768 112.22L225.04 114.972L227.136 114.972L226.864 111.98ZM223.216 105.548C224.464 105.548 224.976 106.332 224.976 107.228C224.976 108.124 224.464 108.94 223.216 108.94L220.848 108.94L220.848 105.548L223.216 105.548ZM238.626 114.972L234.306 103.772L232.322 103.772L228.018 114.972L230.194 114.972L231.154 112.364L235.474 112.364L236.434 114.972L238.626 114.972ZM233.33 106.476L234.834 110.572L231.826 110.572L233.33 106.476ZM241.505 114.972L241.505 110.716L243.873 110.716C246.209 110.716 247.601 109.276 247.601 107.244C247.601 105.212 246.209 103.772 243.873 103.772L239.377 103.772L239.377 114.972L241.505 114.972ZM241.505 105.548L243.777 105.548C245.025 105.548 245.537 106.348 245.537 107.244C245.537 108.14 245.025 108.94 243.777 108.94L241.505 108.94L241.505 105.548ZM255.755 108.316L250.763 108.316L250.763 103.772L248.651 103.772L248.651 114.972L250.763 114.972L250.763 110.156L255.755 110.156L255.755 114.972L257.867 114.972L257.867 103.772L255.755 103.772L255.755 108.316ZM261.818 114.972L261.818 103.772L259.69 103.772L259.69 114.972L261.818 114.972ZM268.692 115.1C271.444 115.1 273.492 113.516 273.716 111.196L271.604 111.196C271.412 112.412 270.228 113.26 268.692 113.26C266.74 113.26 265.268 111.916 265.268 109.372C265.268 106.828 266.74 105.468 268.692 105.468C270.196 105.468 271.38 106.316 271.54 107.548L273.748 107.548C273.444 105.228 271.396 103.644 268.692 103.644C265.764 103.644 263.14 105.564 263.14 109.372C263.14 113.18 265.716 115.1 268.692 115.1ZM278.621 115.1C281.085 115.1 282.797 113.836 282.797 111.756C282.797 107.388 276.701 109.244 276.701 106.764C276.701 105.98 277.389 105.468 278.493 105.468C279.677 105.468 280.445 106.124 280.541 107.1L282.557 107.1C282.461 105.004 280.861 103.644 278.493 103.644C276.221 103.644 274.637 104.924 274.637 106.764C274.637 111.052 280.653 109.388 280.653 111.788C280.653 112.78 279.821 113.26 278.621 113.26C277.277 113.26 276.445 112.46 276.333 111.212L274.301 111.212C274.413 113.564 276.077 115.1 278.621 115.1Z" fill="#1A1B1C"/>
<rect x="109.01" y="112.99" width="153.876" height="153.875" transform="rotate(45 109.01 112.99)" fill="#F3F3F4"/>
<path d="M76.6883 216.09C79.1523 216.09 80.8643 214.826 80.8643 212.746C80.8643 208.378 74.7683 210.234 74.7683 207.754C74.7683 206.97 75.4563 206.458 76.5603 206.458C77.7443 206.458 78.5123 207.114 78.6083 208.09L80.6243 208.09C80.5283 205.994 78.9283 204.634 76.5603 204.634C74.2883 204.634 72.7043 205.914 72.7043 207.754C72.7043 212.042 78.7203 210.378 78.7203 212.778C78.7203 213.77 77.8883 214.25 76.6883 214.25C75.3443 214.25 74.5123 213.45 74.4003 212.202L72.3683 212.202C72.4803 214.554 74.1443 216.09 76.6883 216.09ZM91.7433 215.962L87.2153 209.21L91.3273 204.762L88.6873 204.762L84.1913 209.642L84.1913 204.762L82.0633 204.762L82.0633 215.962L84.1913 215.962L84.1913 212.474L85.7593 210.778L89.1193 215.962L91.7433 215.962ZM94.7306 215.962L94.7306 204.762L92.6026 204.762L92.6026 215.962L94.7306 215.962ZM98.6603 215.962L98.6603 208.074L103.524 215.962L105.796 215.962L105.796 204.762L103.684 204.762L103.684 212.666L98.8363 204.762L96.5483 204.762L96.5483 215.962L98.6603 215.962ZM115.375 215.962L115.375 206.586L118.751 206.586L118.751 204.762L109.871 204.762L109.871 206.586L113.263 206.586L113.263 215.962L115.375 215.962ZM124.579 215.962L124.579 211.306L128.435 204.762L126.163 204.762L123.523 209.338L120.899 204.762L118.611 204.762L122.467 211.306L122.467 215.962L124.579 215.962ZM131.068 215.962L131.068 211.706L133.436 211.706C135.772 211.706 137.164 210.266 137.164 208.234C137.164 206.202 135.772 204.762 133.436 204.762L128.94 204.762L128.94 215.962L131.068 215.962ZM131.068 206.538L133.34 206.538C134.588 206.538 135.1 207.338 135.1 208.234C135.1 209.13 134.588 209.93 133.34 209.93L131.068 209.93L131.068 206.538ZM145.846 215.962L145.846 214.122L140.326 214.122L140.326 211.13L144.614 211.13L144.614 209.306L140.326 209.306L140.326 206.586L145.67 206.586L145.67 204.762L138.214 204.762L138.214 215.962L145.846 215.962ZM84.2774 239.962C87.3814 239.962 90.0214 238.106 90.0214 234.362C90.0214 230.618 87.3814 228.762 84.2774 228.762L80.6454 228.762L80.6454 239.962L84.2774 239.962ZM82.7574 230.586L84.1014 230.586C86.0374 230.586 87.8774 231.594 87.8774 234.362C87.8774 237.13 86.0374 238.122 84.1014 238.122L82.7574 238.122L82.7574 230.586ZM98.9887 239.962L98.9887 238.122L93.4687 238.122L93.4687 235.13L97.7567 235.13L97.7567 233.306L93.4687 233.306L93.4687 230.586L98.8127 230.586L98.8127 228.762L91.3567 228.762L91.3567 239.962L98.9887 239.962ZM104.894 239.962L104.894 230.586L108.27 230.586L108.27 228.762L99.3899 228.762L99.3899 230.586L102.782 230.586L102.782 239.962L104.894 239.962ZM117.317 239.962L112.997 228.762L111.013 228.762L106.709 239.962L108.885 239.962L109.845 237.354L114.165 237.354L115.125 239.962L117.317 239.962ZM112.021 231.466L113.525 235.562L110.517 235.562L112.021 231.466ZM120.197 239.962L120.197 228.762L118.069 228.762L118.069 239.962L120.197 239.962ZM129.374 239.962L129.374 238.122L124.142 238.122L124.142 228.762L122.014 228.762L122.014 239.962L129.374 239.962ZM133.843 240.09C136.307 240.09 138.019 238.826 138.019 236.746C138.019 232.378 131.923 234.234 131.923 231.754C131.923 230.97 132.611 230.458 133.715 230.458C134.899 230.458 135.667 231.114 135.763 232.09L137.779 232.09C137.683 229.994 136.083 228.634 133.715 228.634C131.443 228.634 129.859 229.914 129.859 231.754C129.859 236.042 135.875 234.378 135.875 236.778C135.875 237.77 135.043 238.25 133.843 238.25C132.499 238.25 131.667 237.45 131.555 236.202L129.523 236.202C129.635 238.554 131.299 240.09 133.843 240.09Z" fill="#1A1B1C"/>
<rect x="333.801" y="112.99" width="153.876" height="153.875" transform="rotate(45 333.801 112.99)" fill="#F3F3F4"/>
<path d="M300.689 216.128C303.441 216.128 305.489 214.544 305.713 212.224L303.601 212.224C303.409 213.44 302.225 214.288 300.689 214.288C298.737 214.288 297.265 212.944 297.265 210.4C297.265 207.856 298.737 206.496 300.689 206.496C302.193 206.496 303.377 207.344 303.537 208.576L305.745 208.576C305.441 206.256 303.393 204.672 300.689 204.672C297.761 204.672 295.137 206.592 295.137 210.4C295.137 214.208 297.713 216.128 300.689 216.128ZM312.106 216.128C315.354 216.128 317.754 213.696 317.754 210.4C317.754 207.104 315.354 204.672 312.106 204.672C308.842 204.672 306.442 207.104 306.442 210.4C306.442 213.696 308.842 216.128 312.106 216.128ZM312.09 214.288C310.058 214.288 308.57 212.64 308.57 210.4C308.57 208.16 310.058 206.496 312.09 206.496C314.138 206.496 315.626 208.16 315.626 210.4C315.626 212.64 314.138 214.288 312.09 214.288ZM322.767 216.128C325.231 216.128 326.943 214.864 326.943 212.784C326.943 208.416 320.847 210.272 320.847 207.792C320.847 207.008 321.535 206.496 322.639 206.496C323.823 206.496 324.591 207.152 324.687 208.128L326.703 208.128C326.607 206.032 325.007 204.672 322.639 204.672C320.367 204.672 318.783 205.952 318.783 207.792C318.783 212.08 324.799 210.416 324.799 212.816C324.799 213.808 323.967 214.288 322.767 214.288C321.423 214.288 320.591 213.488 320.479 212.24L318.447 212.24C318.559 214.592 320.223 216.128 322.767 216.128ZM330.126 216L330.126 208.576L333.182 216L334.782 216L337.822 208.576L337.822 216L339.806 216L339.806 204.8L337.374 204.8L333.982 213.072L330.59 204.8L328.142 204.8L328.142 216L330.126 216ZM349.267 216L349.267 214.16L343.747 214.16L343.747 211.168L348.035 211.168L348.035 209.344L343.747 209.344L343.747 206.624L349.091 206.624L349.091 204.8L341.635 204.8L341.635 216L349.267 216ZM355.172 216L355.172 206.624L358.548 206.624L358.548 204.8L349.668 204.8L349.668 206.624L353.06 206.624L353.06 216L355.172 216ZM361.388 216L361.388 204.8L359.26 204.8L359.26 216L361.388 216ZM368.262 216.128C371.014 216.128 373.062 214.544 373.286 212.224L371.174 212.224C370.982 213.44 369.798 214.288 368.262 214.288C366.31 214.288 364.838 212.944 364.838 210.4C364.838 207.856 366.31 206.496 368.262 206.496C369.766 206.496 370.95 207.344 371.11 208.576L373.318 208.576C373.014 206.256 370.966 204.672 368.262 204.672C365.334 204.672 362.71 206.592 362.71 210.4C362.71 214.208 365.286 216.128 368.262 216.128ZM297.381 240.128C300.133 240.128 302.181 238.544 302.405 236.224L300.293 236.224C300.101 237.44 298.917 238.288 297.381 238.288C295.429 238.288 293.957 236.944 293.957 234.4C293.957 231.856 295.429 230.496 297.381 230.496C298.885 230.496 300.069 231.344 300.229 232.576L302.437 232.576C302.133 230.256 300.085 228.672 297.381 228.672C294.453 228.672 291.829 230.592 291.829 234.4C291.829 238.208 294.405 240.128 297.381 240.128ZM308.798 240.128C312.046 240.128 314.446 237.696 314.446 234.4C314.446 231.104 312.046 228.672 308.798 228.672C305.534 228.672 303.134 231.104 303.134 234.4C303.134 237.696 305.534 240.128 308.798 240.128ZM308.782 238.288C306.75 238.288 305.262 236.64 305.262 234.4C305.262 232.16 306.75 230.496 308.782 230.496C310.83 230.496 312.318 232.16 312.318 234.4C312.318 236.64 310.83 238.288 308.782 238.288ZM317.891 240L317.891 232.112L322.755 240L325.027 240L325.027 228.8L322.915 228.8L322.915 236.704L318.067 228.8L315.779 228.8L315.779 240L317.891 240ZM331.905 240.128C334.657 240.128 336.705 238.544 336.929 236.224L334.817 236.224C334.625 237.44 333.441 238.288 331.905 238.288C329.953 238.288 328.481 236.944 328.481 234.4C328.481 231.856 329.953 230.496 331.905 230.496C333.409 230.496 334.593 231.344 334.753 232.576L336.961 232.576C336.657 230.256 334.609 228.672 331.905 228.672C328.977 228.672 326.353 230.592 326.353 234.4C326.353 238.208 328.929 240.128 331.905 240.128ZM345.771 240L345.771 238.16L340.251 238.16L340.251 235.168L344.539 235.168L344.539 233.344L340.251 233.344L340.251 230.624L345.595 230.624L345.595 228.8L338.139 228.8L338.139 240L345.771 240ZM355.244 237.008C355.164 235.984 354.668 235.152 353.9 234.672C354.828 234.192 355.404 233.408 355.404 232.256C355.404 230.224 354.028 228.8 351.692 228.8L347.1 228.8L347.1 240L349.228 240L349.228 235.792L351.644 235.792C352.476 235.792 353.068 236.4 353.148 237.248L353.42 240L355.516 240L355.244 237.008ZM351.596 230.576C352.844 230.576 353.356 231.36 353.356 232.256C353.356 233.152 352.844 233.968 351.596 233.968L349.228 233.968L349.228 230.576L351.596 230.576ZM359.486 240L359.486 232.112L364.35 240L366.622 240L366.622 228.8L364.51 228.8L364.51 236.704L359.662 228.8L357.374 228.8L357.374 240L359.486 240ZM372.124 240.128C374.588 240.128 376.3 238.864 376.3 236.784C376.3 232.416 370.204 234.272 370.204 231.792C370.204 231.008 370.892 230.496 371.996 230.496C373.18 230.496 373.948 231.152 374.044 232.128L376.06 232.128C375.964 230.032 374.364 228.672 371.996 228.672C369.724 228.672 368.14 229.952 368.14 231.792C368.14 236.08 374.156 234.416 374.156 236.816C374.156 237.808 373.324 238.288 372.124 238.288C370.78 238.288 369.948 237.488 369.836 236.24L367.804 236.24C367.916 238.592 369.58 240.128 372.124 240.128Z" fill="#1A1B1C"/>
<rect x="221.996" y="225.981" width="153.876" height="153.875" transform="rotate(45 221.996 225.981)" fill="#F3F3F4"/>
<path d="M190.998 341L193.382 333.08L195.766 341L197.846 341L201.19 329.8L199.062 329.8L196.726 337.88L194.278 329.8L192.47 329.8L190.038 337.88L187.718 329.8L185.574 329.8L188.934 341L190.998 341ZM209.858 341L209.858 339.16L204.338 339.16L204.338 336.168L208.626 336.168L208.626 334.344L204.338 334.344L204.338 331.624L209.682 331.624L209.682 329.8L202.226 329.8L202.226 341L209.858 341ZM220.819 341L216.499 329.8L214.515 329.8L210.211 341L212.387 341L213.347 338.392L217.667 338.392L218.627 341L220.819 341ZM215.523 332.504L217.027 336.6L214.019 336.6L215.523 332.504ZM224.756 341L224.756 331.624L228.132 331.624L228.132 329.8L219.252 329.8L219.252 331.624L222.644 331.624L222.644 341L224.756 341ZM235.948 334.344L230.956 334.344L230.956 329.8L228.844 329.8L228.844 341L230.956 341L230.956 336.184L235.948 336.184L235.948 341L238.06 341L238.06 329.8L235.948 329.8L235.948 334.344ZM247.515 341L247.515 339.16L241.995 339.16L241.995 336.168L246.283 336.168L246.283 334.344L241.995 334.344L241.995 331.624L247.339 331.624L247.339 329.8L239.883 329.8L239.883 341L247.515 341ZM256.989 338.008C256.909 336.984 256.413 336.152 255.645 335.672C256.573 335.192 257.149 334.408 257.149 333.256C257.149 331.224 255.773 329.8 253.437 329.8L248.845 329.8L248.845 341L250.973 341L250.973 336.792L253.389 336.792C254.221 336.792 254.813 337.4 254.893 338.248L255.165 341L257.261 341L256.989 338.008ZM253.341 331.576C254.589 331.576 255.101 332.36 255.101 333.256C255.101 334.152 254.589 334.968 253.341 334.968L250.973 334.968L250.973 331.576L253.341 331.576Z" fill="#1A1B1C"/>
</svg>
